<svg width="18" height="19" viewBox="0 0 18 19" fill="none" xmlns="http://www.w3.org/2000/svg">
<path d="M9 0.40625C13.957 0.40625 18 4.44922 18 9.40625C18 14.3984 13.957 18.4062 9 18.4062C4.00781 18.4062 0 14.3984 0 9.40625C0 4.44922 4.00781 0.40625 9 0.40625ZM9 16.7188C13.0078 16.7188 16.3125 13.4492 16.3125 9.40625C16.3125 5.39844 13.0078 2.09375 9 2.09375C4.95703 2.09375 1.6875 5.39844 1.6875 9.40625C1.6875 13.4492 4.95703 16.7188 9 16.7188ZM10.4062 12.2188C10.8633 12.2188 11.25 12.6055 11.25 13.0625C11.25 13.5547 10.8633 13.9062 10.4062 13.9062H7.59375C7.10156 13.9062 6.75 13.5547 6.75 13.0625C6.75 12.6055 7.10156 12.2188 7.59375 12.2188H8.15625V9.96875H7.875C7.38281 9.96875 7.03125 9.61719 7.03125 9.125C7.03125 8.66797 7.38281 8.28125 7.875 8.28125H9C9.45703 8.28125 9.84375 8.66797 9.84375 9.125V12.2188H10.4062ZM9 7.15625C8.36719 7.15625 7.875 6.66406 7.875 6.03125C7.875 5.43359 8.36719 4.90625 9 4.90625C9.59766 4.90625 10.125 5.43359 10.125 6.03125C10.125 6.66406 9.59766 7.15625 9 7.15625Z" fill="#6C24A5"/>
</svg>
