<svg width="30" height="31" viewBox="0 0 30 31" fill="none" xmlns="http://www.w3.org/2000/svg">
<path d="M15 30.75C6.67969 30.75 0 24.0703 0 15.75C0 7.48828 6.67969 0.75 15 0.75C23.2617 0.75 30 7.48828 30 15.75C30 24.0703 23.2617 30.75 15 30.75ZM10.8984 8.77734C10.3711 8.19141 9.49219 8.13281 8.90625 8.60156C8.32031 9.12891 8.26172 10.0078 8.73047 10.5938L13.125 15.75L8.73047 20.9648C8.26172 21.5508 8.32031 22.4297 8.90625 22.957C9.49219 23.4258 10.3711 23.3672 10.8984 22.7812L15 17.9766L19.043 22.7812C19.5703 23.3672 20.4492 23.4258 21.0352 22.957C21.6211 22.4297 21.6797 21.5508 21.2109 20.9648L16.8164 15.75L21.2109 10.5938C21.6797 10.0078 21.6211 9.12891 21.0352 8.60156C20.4492 8.13281 19.5703 8.19141 19.043 8.77734L15 13.582L10.8984 8.77734Z" fill="#6C24A5"/>
</svg>
