<svg width="30" height="31" viewBox="0 0 30 31" fill="none" xmlns="http://www.w3.org/2000/svg">
<path d="M15 30.75C6.67969 30.75 0 24.0703 0 15.75C0 7.48828 6.67969 0.75 15 0.75C23.2617 0.75 30 7.48828 30 15.75C30 24.0703 23.2617 30.75 15 30.75ZM21.6211 12.9961H21.5625C22.1484 12.4688 22.1484 11.5898 21.5625 11.0039C21.0352 10.4766 20.1562 10.4766 19.6289 11.0039L13.125 17.5664L10.3711 14.8125C9.78516 14.2266 8.90625 14.2266 8.37891 14.8125C7.79297 15.3398 7.79297 16.2188 8.37891 16.7461L12.1289 20.4961C12.6562 21.082 13.5352 21.082 14.1211 20.4961L21.6211 12.9961Z" fill="#6C24A5"/>
</svg>
