<svg width="291" height="51" viewBox="0 0 291 51" fill="none" xmlns="http://www.w3.org/2000/svg">
<path fill-rule="evenodd" clip-rule="evenodd" d="M234.458 20.5708C235.84 22.4822 236.636 24.8991 236.582 27.88C236.47 34.0333 232.298 37.7393 227.534 39.836C222.781 41.9275 217.174 42.5622 213.456 42.5195C213.098 42.5153 212.758 42.3565 212.526 42.0838C212.293 41.811 212.189 41.451 212.241 41.0962L215.969 15.7481C216.052 15.1819 216.511 14.7458 217.081 14.6919C220.277 14.3896 225.094 14.6371 229.147 16.44C231.189 17.3482 233.085 18.6734 234.458 20.5708ZM218.282 17.0969C221.153 16.9552 224.973 17.3028 228.137 18.7106C229.89 19.4902 231.392 20.5724 232.444 22.0273C233.486 23.4682 234.142 25.3485 234.097 27.8348C234.01 32.616 230.851 35.6612 226.533 37.5614C222.759 39.2217 218.304 39.8968 214.912 40.0164L218.282 17.0969Z" fill="#FF3D7F"/>
<path fill-rule="evenodd" clip-rule="evenodd" d="M250.151 15.3393C250.367 14.9372 250.787 14.6865 251.244 14.6865H253.481C254.109 14.6865 254.638 15.1547 254.714 15.7778L257.945 42.1199L255.478 42.4225L254.423 33.8218H243.008L238.67 41.8669L236.483 40.6874L250.151 15.3393ZM244.348 31.3367H254.119L252.381 17.1716H251.986L244.348 31.3367Z" fill="#FF3D7F"/>
<path fill-rule="evenodd" clip-rule="evenodd" d="M276.5 16.495C269.784 16.495 264.339 21.9398 264.339 28.6562C264.339 35.3727 269.784 40.8175 276.5 40.8175C283.216 40.8175 288.661 35.3727 288.661 28.6562C288.661 21.9398 283.216 16.495 276.5 16.495ZM262 28.6562C262 20.6481 268.492 14.1562 276.5 14.1562C284.508 14.1562 291 20.6481 291 28.6562C291 36.6644 284.508 43.1562 276.5 43.1562C268.492 43.1562 262 36.6644 262 28.6562Z" fill="#FF3D7F"/>
<path fill-rule="evenodd" clip-rule="evenodd" d="M276.469 23.5179C275.913 24.8894 276.016 26.6478 276.91 28.836C277.311 29.8182 277.612 30.9654 277.836 32.1709C278.616 31.8216 279.34 31.525 279.965 31.309C281.76 30.6887 283.514 29.3137 284.858 27.7247C286.218 26.1156 287.025 24.4458 287.12 23.3317L289 23.485C288.859 25.1408 287.78 27.1641 286.311 28.902C284.825 30.66 282.806 32.2857 280.593 33.0503C279.891 33.2928 279.045 33.6497 278.126 34.0747C278.202 34.6934 278.261 35.3128 278.307 35.9195C278.495 38.3863 278.472 40.7347 278.391 42.1562L276.507 42.0538C276.584 40.7055 276.607 38.4375 276.426 36.0569C276.398 35.6858 276.365 35.314 276.326 34.9444C273.586 36.3173 270.624 37.9939 268.978 38.9706L268 37.3914C269.74 36.359 273.069 34.4728 276.068 33.003C275.853 31.7023 275.557 30.4965 275.159 29.5218C274.166 27.0937 273.915 24.8127 274.715 22.8372C275.522 20.8458 279.006 18.1373 281.637 17.1562L283.06 18.0851C280.739 18.9506 277.018 22.1624 276.469 23.5179Z" fill="#FF3D7F"/>
<path fill-rule="evenodd" clip-rule="evenodd" d="M287.071 25.5896L278.765 20.8155L279.555 19.1562L288 23.2808L287.071 25.5896ZM283.583 29.9951L275.966 24.9462L276.991 23.4185L284.608 28.4675L283.583 29.9951ZM277.232 40.1562L271 37.1728L271.801 35.5186L278.033 38.502L277.232 40.1562Z" fill="#FF3D7F"/>
<path d="M102.107 15.155C101.78 14.9846 101.445 14.831 101.103 14.6947L100.552 14.5106C98.8977 13.9589 97.1664 13.6756 95.4233 13.6714C93.6172 13.6889 91.8257 13.9975 90.1176 14.5855C87.5784 15.6051 85.2745 17.1352 83.3482 19.0812C81.5736 21.0656 80.307 23.4524 79.6573 26.0361C79.0077 28.6198 78.9945 31.3229 79.6189 33.9129C80.2433 36.5028 81.4866 38.9019 83.2418 40.9036C84.997 42.9053 87.2114 44.4496 89.6945 45.4037C92.1775 46.3578 94.8548 46.6929 97.4959 46.3804C100.137 46.0678 102.663 45.1169 104.855 43.6094C107.048 42.102 108.843 40.0832 110.084 37.7269C111.325 35.3705 111.976 32.7472 111.981 30.0828C112.009 27.9645 111.619 25.8615 110.834 23.8946C110.048 21.9277 108.883 20.1355 107.404 18.6209C105.807 17.2259 104.024 16.0595 102.107 15.155ZM95.4126 41.2728C92.4577 41.2605 89.6274 40.0792 87.5376 37.9863C85.4478 35.8934 84.2677 33.0582 84.2542 30.0978C84.2543 27.9923 84.8525 25.9302 85.9789 24.1526C87.1053 22.375 88.7133 20.9553 90.6151 20.0593C92.5169 19.1633 94.634 18.828 96.7189 19.0927C98.8038 19.3573 100.771 20.211 102.389 21.5538C103.755 22.6951 104.85 24.127 105.594 25.7456C106.181 27.1553 106.499 28.6627 106.532 30.1899C106.535 31.6452 106.251 33.0867 105.697 34.432C105.143 35.7773 104.329 37 103.303 38.0302C102.277 39.0605 101.059 39.8781 99.7174 40.4363C98.3759 40.9945 96.9378 41.2824 95.4852 41.2835L95.4126 41.2728Z" fill="#FF3D7F"/>
<path d="M87.4851 11.8198C87.4851 9.95582 88.2347 8.16816 89.569 6.85011C90.9032 5.53206 92.7128 4.79159 94.5998 4.79159C96.4867 4.79159 98.2963 5.53206 99.6306 6.85011C100.965 8.16816 101.714 9.95582 101.714 11.8198V12.6444C103.342 13.3423 104.85 14.2847 106.186 15.4381V11.9103C106.228 10.3819 105.96 8.86073 105.397 7.43658C104.834 6.01242 103.987 4.71417 102.908 3.6185C101.828 2.52283 100.538 1.65194 99.1118 1.05728C97.6859 0.462626 96.1539 0.15625 94.6062 0.15625C93.0584 0.15625 91.5264 0.462626 90.1005 1.05728C88.6747 1.65194 87.3839 2.52283 86.3044 3.6185C85.225 4.71417 84.3787 6.01242 83.8156 7.43658C83.2525 8.86073 82.984 10.3819 83.026 11.9103V15.6021C84.452 14.6133 85.9463 13.7241 87.4979 12.9411" fill="#FF3D7F"/>
<path d="M101.192 32.9789H91.8821C91.2628 32.9789 90.7447 33.2805 90.7447 33.6427V34.2459C90.7426 34.6081 91.2607 34.9097 91.88 34.9097H101.192C101.811 34.9097 102.329 34.6081 102.329 34.2459V33.6427C102.329 33.2249 101.811 32.9789 101.192 32.9789Z" fill="#FF3D7F"/>
<path d="M91.88 27.1863H101.192C101.811 27.1863 102.329 26.8847 102.329 26.5225V25.9193C102.329 25.5571 101.811 25.2555 101.192 25.2555H91.8821C91.2628 25.2555 90.7447 25.5571 90.7447 25.9193V26.5225C90.7426 26.8847 91.2607 27.1863 91.88 27.1863Z" fill="white"/>
<path d="M87.9762 31.0448L103.167 31.0448C103.426 31.0631 103.685 31.0044 103.888 30.8811C104.092 30.7578 104.225 30.5795 104.26 30.3833V29.7822C104.225 29.586 104.092 29.4076 103.888 29.2843C103.685 29.161 103.426 29.1024 103.167 29.1206L87.9762 29.1206C87.717 29.1024 87.4585 29.161 87.2549 29.2843C87.0512 29.4076 86.918 29.586 86.8833 29.7822V30.3833C86.8833 30.8047 87.2807 31.0448 87.9762 31.0448Z" fill="#DAD8A7"/>
<path d="M22.3859 20.2215C22.6508 20.4675 22.8561 20.768 22.9867 21.1011C23.1173 21.4342 23.17 21.7916 23.1409 22.1471V39.8479C23.2486 41.2791 23.0438 42.7163 22.54 44.0646C22.0361 45.413 21.2447 46.6419 20.218 47.6702C17.7666 49.6041 14.6501 50.5524 11.5054 50.3213C8.59605 50.4338 5.70778 49.7958 3.13245 48.4717C2.65327 48.2626 2.24202 47.9295 1.94336 47.5086C1.64471 47.0877 1.47006 46.5951 1.4384 46.0843C1.4011 45.5165 1.56534 44.9535 1.90356 44.4899C2.05713 44.2987 2.25458 44.1452 2.48004 44.0419C2.70549 43.9386 2.95267 43.8884 3.20169 43.8951C3.55461 43.9107 3.90318 43.9775 4.23586 44.0934C4.65175 44.22 5.05927 44.3714 5.4561 44.5468C6.43861 44.9628 7.44573 45.3213 8.47209 45.6203C9.44789 45.8707 10.4557 45.9822 11.4643 45.9514C15.4798 45.9514 17.5222 44.0259 17.5222 40.1685V37.3298C16.8783 38.5518 15.8596 39.5477 14.6079 40.179C13.2233 40.8895 11.6811 41.2581 10.1164 41.2525C8.27075 41.2795 6.45517 40.7953 4.8806 39.8564C3.33052 38.9271 2.08809 37.582 1.30209 35.9821C0.398795 34.2438 -0.0472756 32.3139 0.00396521 30.3658C-0.043757 28.3932 0.401774 26.4388 1.30209 24.6715C2.07832 23.0862 3.30153 21.7489 4.82867 20.8163C6.40998 19.8903 8.22898 19.4221 10.0731 19.4665C11.606 19.4406 13.1221 19.7809 14.4889 20.4577C15.7464 21.0852 16.7713 22.0798 17.4205 23.3028V22.0796C17.4047 21.727 17.4731 21.3757 17.6203 21.0533C17.7674 20.7308 17.9894 20.4461 18.2686 20.2215C18.8295 19.7399 19.555 19.4803 20.3024 19.4939C21.0662 19.4716 21.8104 19.7315 22.3859 20.2215ZM15.919 35.1554C17.0089 33.7969 17.5652 32.1036 17.4876 30.3806C17.5919 28.631 17.0338 26.9049 15.919 25.5299C15.3805 24.9499 14.7163 24.494 13.9746 24.1953C13.2329 23.8965 12.4323 23.7624 11.6309 23.8026C10.8308 23.7637 10.0319 23.8984 9.29185 24.1971C8.55176 24.4958 7.88898 24.9511 7.35137 25.5299C6.24641 26.91 5.68944 28.6323 5.7828 30.3806C5.68329 32.1077 6.24537 33.8094 7.36002 35.1554C7.88923 35.7445 8.55061 36.2068 9.29279 36.5063C10.035 36.8059 10.838 36.9347 11.6395 36.8827C12.4422 36.9457 13.2487 36.822 13.9928 36.5217C14.7368 36.2214 15.397 35.7531 15.919 35.1554Z" fill="white"/>
<path d="M47.748 36.709C48.1016 37.1746 48.2722 37.7483 48.2288 38.3259C48.2006 38.8365 48.0241 39.3287 47.7198 39.7453C47.4154 40.1618 46.9958 40.4855 46.5099 40.6785C45.3695 41.2743 44.164 41.7435 42.9162 42.0773C41.6552 42.4147 40.3555 42.5951 39.048 42.6141C37.4533 42.7019 35.8566 42.4781 34.3519 41.9558C32.8473 41.4335 31.4651 40.6233 30.2866 39.5728C29.1854 38.4488 28.3301 37.1184 27.7727 35.6625C27.2153 34.2066 26.9674 32.6555 27.0441 31.1034C27.0104 29.0073 27.4818 26.9328 28.4206 25.0465C29.3393 23.3642 30.6979 21.9483 32.359 20.9422C34.1255 19.9603 36.1274 19.4519 38.1611 19.4686C40.0581 19.4119 41.9345 19.8639 43.5857 20.7754C45.0787 21.6824 46.2727 22.9883 47.0258 24.5374C47.8945 26.3231 48.3187 28.2832 48.2639 30.2586C48.2639 31.5418 47.6448 32.2027 46.466 32.2027H32.7102C32.7688 33.903 33.4006 35.5371 34.5082 36.8523C35.1158 37.3775 35.8255 37.7786 36.5951 38.0317C37.3647 38.2848 38.1787 38.3849 38.9888 38.3259C39.86 38.3241 40.7271 38.2113 41.5682 37.9901C42.3344 37.7228 43.2279 37.387 44.1916 36.9849C44.8321 36.591 45.5499 36.3317 46.2991 36.2235C46.5623 36.1441 46.8445 36.1484 47.105 36.2357C47.3655 36.3229 47.5907 36.4887 47.748 36.709ZM34.6355 24.8732C33.5897 26.0376 32.9833 27.515 32.9166 29.0609H43.4672C43.5023 27.5351 43.0149 26.0414 42.0819 24.8155C41.6148 24.3327 41.0451 23.9551 40.4126 23.7091C39.7802 23.4631 39.1002 23.3545 38.4202 23.3911C37.7164 23.35 37.0121 23.4617 36.358 23.718C35.7039 23.9743 35.1163 24.3689 34.6377 24.8732H34.6355Z" fill="white"/>
<path d="M71.3741 21.8217C72.8086 23.8061 73.505 26.2202 73.3453 28.6545V39.8774C73.3621 40.2449 73.3041 40.6119 73.1747 40.9567C73.0452 41.3015 72.847 41.617 72.5918 41.8846C72.0161 42.3964 71.2601 42.664 70.4868 42.6298C69.7181 42.6506 68.9698 42.3845 68.3904 41.8846C68.1061 41.6343 67.8824 41.3239 67.7359 40.9764C67.5894 40.629 67.5238 40.2534 67.5441 39.8774V29.0047C67.6611 27.6718 67.302 26.3405 66.5293 25.2424C66.1361 24.8179 65.6494 24.4886 65.107 24.2798C64.5645 24.071 63.9808 23.9883 63.4009 24.0381C62.6636 24.0147 61.9291 24.139 61.2416 24.4035C60.5541 24.6681 59.9277 25.0675 59.4003 25.5776C58.8792 26.139 58.4781 26.7986 58.221 27.5171C57.9639 28.2355 57.8561 28.9978 57.9041 29.7584V39.8774C57.9244 40.2534 57.8588 40.629 57.7123 40.9764C57.5658 41.3239 57.3421 41.6343 57.0578 41.8846C56.4579 42.3593 55.7125 42.618 54.9441 42.618C54.1758 42.618 53.4304 42.3593 52.8305 41.8846C52.5836 41.6139 52.3948 41.2964 52.2757 40.9513C52.1566 40.6063 52.1095 40.241 52.1374 39.8774V22.3149C52.1237 21.9582 52.1928 21.6032 52.3395 21.277C52.4862 20.9509 52.7066 20.6624 52.9838 20.4337C53.5552 19.9152 54.3047 19.6312 55.0802 19.6394C55.7947 19.6356 56.4895 19.8712 57.0513 20.3078C57.2982 20.5463 57.492 20.8333 57.6203 21.1503C57.7486 21.4672 57.8085 21.8072 57.7962 22.1484V23.3526C58.5128 22.1234 59.5728 21.1248 60.849 20.4764C62.1915 19.7916 63.6848 19.4468 65.1951 19.4729C66.3333 19.4199 67.4703 19.6013 68.534 20.0056C69.5976 20.4099 70.5648 21.0283 71.3741 21.8217Z" fill="white"/>
<path d="M150.605 21.6155C152.029 23.6411 152.699 26.1356 152.491 28.6362V39.9261C152.51 40.3045 152.448 40.6827 152.307 41.0325C152.167 41.3822 151.953 41.6947 151.681 41.9467C151.115 42.4266 150.397 42.6695 149.668 42.6282C148.966 42.6303 148.283 42.3907 147.726 41.9467C147.454 41.6947 147.24 41.3822 147.1 41.0325C146.96 40.6827 146.897 40.3045 146.917 39.9261V28.6362C147.039 27.3797 146.739 26.118 146.068 25.0656C145.748 24.6838 145.347 24.3858 144.896 24.1957C144.445 24.0056 143.957 23.9288 143.472 23.9715C142.824 23.951 142.179 24.0801 141.585 24.3495C140.99 24.619 140.46 25.0221 140.033 25.5299C139.122 26.7213 138.662 28.2184 138.738 29.7389V39.9261C138.758 40.3045 138.695 40.6827 138.555 41.0325C138.415 41.3822 138.201 41.6947 137.929 41.9467C137.386 42.4165 136.693 42.6567 135.987 42.6196C135.287 42.6235 134.605 42.387 134.046 41.9467C133.774 41.6947 133.56 41.3822 133.42 41.0325C133.28 40.6827 133.217 40.3045 133.237 39.9261V28.6362C133.37 27.3844 133.084 26.1231 132.427 25.0656C132.105 24.6842 131.702 24.3866 131.25 24.1966C130.797 24.0066 130.309 23.9295 129.823 23.9715C129.183 23.9413 128.545 24.0664 127.96 24.3369C127.375 24.6074 126.858 25.0158 126.45 25.5299C125.558 26.7289 125.117 28.2256 125.211 29.7389V39.9261C125.23 40.3045 125.168 40.6827 125.027 41.0325C124.887 41.3822 124.673 41.6947 124.401 41.9467C123.858 42.4158 123.165 42.6559 122.46 42.6196C121.759 42.6248 121.077 42.3882 120.519 41.9467C120.247 41.6947 120.033 41.3822 119.893 41.0325C119.752 40.6827 119.69 40.3045 119.709 39.9261V22.1529C119.691 21.7831 119.755 21.414 119.895 21.0738C120.035 20.7336 120.249 20.4313 120.519 20.1902C121.062 19.7212 121.755 19.4811 122.46 19.5174C123.149 19.4772 123.825 19.7187 124.346 20.1902C124.584 20.4373 124.77 20.7332 124.893 21.0592C125.016 21.3852 125.072 21.7342 125.058 22.0841V23.1761C125.676 21.9859 126.626 21.0194 127.784 20.4052C129.021 19.7552 130.396 19.4396 131.781 19.4873C133.151 19.367 134.522 19.712 135.689 20.4708C136.855 21.2296 137.754 22.3612 138.251 23.6963C138.907 22.4193 139.9 21.3645 141.113 20.6567C142.413 19.8738 143.891 19.4698 145.393 19.4873C146.358 19.4209 147.326 19.5772 148.227 19.945C149.129 20.3129 149.94 20.8833 150.605 21.6155Z" fill="white"/>
<path d="M177.07 36.7104C177.42 37.1768 177.587 37.7506 177.541 38.3273C177.513 38.8381 177.338 39.3308 177.034 39.7475C176.73 40.1642 176.311 40.4877 175.826 40.6799C174.687 41.2737 173.485 41.7428 172.24 42.0786C170.985 42.4163 169.69 42.5967 168.388 42.6154C166.795 42.7 165.201 42.4739 163.699 41.9502C162.196 41.4266 160.816 40.6159 159.638 39.5656C158.539 38.4416 157.686 37.1112 157.13 35.6553C156.574 34.1994 156.327 32.6484 156.403 31.0963C156.368 28.9991 156.841 26.9236 157.785 25.0395C158.697 23.3539 160.053 21.9369 161.714 20.9353C163.478 19.9545 165.476 19.4476 167.505 19.466C169.387 19.4284 171.243 19.892 172.875 20.807C174.394 21.7004 175.612 23.0081 176.38 24.5689C177.248 26.3544 177.674 28.3141 177.624 30.29C177.624 31.5732 176.997 32.2341 175.83 32.2341H162.054C162.116 33.9336 162.746 35.5666 163.848 36.8837C164.463 37.4089 165.18 37.8074 165.957 38.0551C166.734 38.3028 167.554 38.3947 168.368 38.3251C169.252 38.3266 170.132 38.2137 170.985 37.9894C171.877 37.7053 172.751 37.3696 173.603 36.9842C174.229 36.6002 174.93 36.3461 175.661 36.2378C175.918 36.1726 176.188 36.1827 176.438 36.2668C176.689 36.3508 176.908 36.5052 177.07 36.7104ZM163.911 24.8748C162.867 26.0389 162.262 27.5164 162.196 29.0624H172.731C172.763 27.5404 172.281 26.0504 171.358 24.8235C170.904 24.3268 170.339 23.9402 169.706 23.6945C169.073 23.4487 168.39 23.3505 167.711 23.4076C167.006 23.3736 166.301 23.4884 165.646 23.7442C164.99 23.9999 164.398 24.3907 163.911 24.8898V24.8748Z" fill="white"/>
<path d="M182.999 40.4857C182.542 40.2396 182.161 39.8779 181.897 39.4385C181.632 38.9991 181.493 38.4981 181.493 37.9879C181.46 37.4587 181.629 36.9363 181.969 36.5233C182.116 36.3452 182.303 36.2033 182.515 36.1091C182.728 36.0149 182.961 35.9711 183.194 35.9812C183.969 36.0712 184.715 36.3243 185.381 36.7231C186.265 37.1393 187.177 37.4944 188.111 37.786C189.137 38.0551 190.198 38.1677 191.258 38.1197C192.296 38.1768 193.331 37.9703 194.262 37.5203C194.597 37.3645 194.879 37.1173 195.074 36.8084C195.268 36.4995 195.367 36.1421 195.359 35.7793C195.377 35.5628 195.351 35.3449 195.28 35.1389C195.21 34.9328 195.098 34.7428 194.951 34.5803C194.505 34.1786 193.964 33.8922 193.376 33.747C192.258 33.4083 191.122 33.1301 189.973 32.9137C187.845 32.6255 185.825 31.8217 184.095 30.5754C183.5 30.0563 183.031 29.4126 182.725 28.692C182.419 27.9714 182.282 27.1925 182.325 26.4131C182.306 25.1093 182.734 23.8368 183.542 22.7993C184.395 21.7042 185.523 20.8437 186.817 20.3016C188.335 19.708 189.961 19.4244 191.595 19.4683C192.864 19.4522 194.13 19.6089 195.355 19.9338C196.492 20.2338 197.574 20.7057 198.563 21.3326C199.008 21.5685 199.381 21.9153 199.646 22.3378C199.91 22.7604 200.056 23.2437 200.068 23.7389C200.101 24.2916 199.932 24.8377 199.592 25.2801C199.45 25.4669 199.265 25.6184 199.053 25.7225C198.84 25.8266 198.605 25.8804 198.367 25.8796C198.014 25.8794 197.664 25.8115 197.338 25.6798C196.92 25.4907 196.514 25.2778 196.121 25.042C195.383 24.6321 194.606 24.2946 193.8 24.0344C193.024 23.8114 192.219 23.699 191.411 23.7007C190.451 23.6406 189.496 23.8763 188.68 24.3745C188.358 24.5718 188.093 24.8486 187.914 25.1773C187.735 25.506 187.647 25.875 187.66 26.2473C187.65 26.6002 187.74 26.9488 187.92 27.2545C188.1 27.5603 188.364 27.8113 188.68 27.9798C189.933 28.5724 191.269 28.9793 192.644 29.1873C194.313 29.4876 195.94 29.9792 197.492 30.6519C198.516 31.0766 199.4 31.7713 200.044 32.6586C200.571 33.6227 200.829 34.7056 200.793 35.7984C200.813 36.7639 200.591 37.7194 200.146 38.5813C199.701 39.4433 199.047 40.1854 198.241 40.7429C196.189 42.0919 193.742 42.7494 191.274 42.6157C188.376 42.5993 185.53 41.8666 182.999 40.4857Z" fill="white"/>
<path d="M102.107 15.155C101.78 14.9846 101.445 14.831 101.103 14.6947L100.552 14.5106C98.8977 13.9589 97.1664 13.6756 95.4233 13.6714C93.6172 13.6889 91.8257 13.9975 90.1176 14.5855C87.5784 15.6051 85.2745 17.1352 83.3482 19.0812C81.5736 21.0656 80.307 23.4524 79.6573 26.0361C79.0077 28.6198 78.9945 31.3229 79.6189 33.9129C80.2433 36.5028 81.4866 38.9019 83.2418 40.9036C84.997 42.9053 87.2114 44.4496 89.6945 45.4037C92.1775 46.3578 94.8548 46.6929 97.4959 46.3804C100.137 46.0678 102.663 45.1169 104.855 43.6094C107.048 42.102 108.843 40.0832 110.084 37.7269C111.325 35.3705 111.976 32.7472 111.981 30.0828C112.009 27.9645 111.619 25.8615 110.834 23.8946C110.048 21.9277 108.883 20.1355 107.404 18.6209C105.807 17.2259 104.024 16.0595 102.107 15.155ZM95.4126 41.2728C92.4577 41.2605 89.6274 40.0792 87.5376 37.9863C85.4478 35.8934 84.2677 33.0582 84.2542 30.0978C84.2543 27.9923 84.8525 25.9302 85.9789 24.1526C87.1053 22.375 88.7133 20.9553 90.6151 20.0593C92.5169 19.1633 94.634 18.828 96.7189 19.0927C98.8038 19.3573 100.771 20.211 102.389 21.5538C103.755 22.6951 104.85 24.127 105.594 25.7456C106.181 27.1553 106.499 28.6627 106.532 30.1899C106.535 31.6452 106.251 33.0867 105.697 34.432C105.143 35.7773 104.329 37 103.303 38.0302C102.277 39.0605 101.059 39.8781 99.7174 40.4363C98.3759 40.9945 96.9378 41.2824 95.4852 41.2835L95.4126 41.2728Z" fill="#FF3D7F"/>
<path d="M87.4851 11.8198C87.4851 9.95582 88.2347 8.16816 89.569 6.85011C90.9032 5.53206 92.7128 4.79159 94.5998 4.79159C96.4867 4.79159 98.2963 5.53206 99.6306 6.85011C100.965 8.16816 101.714 9.95582 101.714 11.8198V12.6444C103.342 13.3423 104.85 14.2847 106.186 15.4381V11.9103C106.228 10.3819 105.96 8.86073 105.397 7.43658C104.834 6.01242 103.987 4.71417 102.908 3.6185C101.828 2.52283 100.538 1.65194 99.1118 1.05728C97.6859 0.462626 96.1539 0.15625 94.6062 0.15625C93.0584 0.15625 91.5264 0.462626 90.1005 1.05728C88.6747 1.65194 87.3839 2.52283 86.3044 3.6185C85.225 4.71417 84.3787 6.01242 83.8156 7.43658C83.2525 8.86073 82.984 10.3819 83.026 11.9103V15.6021C84.452 14.6133 85.9463 13.7241 87.4979 12.9411" fill="#FF3D7F"/>
<path d="M101.192 32.9789H91.8821C91.2628 32.9789 90.7447 33.2805 90.7447 33.6427V34.2459C90.7426 34.6081 91.2607 34.9097 91.88 34.9097H101.192C101.811 34.9097 102.329 34.6081 102.329 34.2459V33.6427C102.329 33.2249 101.811 32.9789 101.192 32.9789Z" fill="#FF3D7F"/>
<path d="M91.88 27.1863H101.192C101.811 27.1863 102.329 26.8847 102.329 26.5225V25.9193C102.329 25.5571 101.811 25.2555 101.192 25.2555H91.8821C91.2628 25.2555 90.7447 25.5571 90.7447 25.9193V26.5225C90.7426 26.8847 91.2607 27.1863 91.88 27.1863Z" fill="white"/>
<path d="M87.9762 31.0448L103.167 31.0448C103.426 31.0631 103.685 31.0044 103.888 30.8811C104.092 30.7578 104.225 30.5795 104.26 30.3833V29.7822C104.225 29.586 104.092 29.4076 103.888 29.2843C103.685 29.161 103.426 29.1024 103.167 29.1206L87.9762 29.1206C87.717 29.1024 87.4585 29.161 87.2549 29.2843C87.0512 29.4076 86.918 29.586 86.8833 29.7822V30.3833C86.8833 30.8047 87.2807 31.0448 87.9762 31.0448Z" fill="#DAD8A7"/>
<path d="M213.222 14.9348L201.791 42.0225L193 42.6565L213.222 14.9348Z" fill="white"/>
</svg>
