<svg width="1728" height="1222" viewBox="0 0 1728 1222" fill="none" xmlns="http://www.w3.org/2000/svg">
<g opacity="0.1" filter="url(#filter0_f_1236_2823)">
<g filter="url(#filter1_f_1236_2823)">
<path fill-rule="evenodd" clip-rule="evenodd" d="M575.884 -455.992C999.413 -534.563 1435.56 -369.291 1612.51 -35.8077C1774.84 270.137 1562.31 615.054 1275.02 861.648C1008.06 1090.78 631.565 1216.81 304.9 1086.56C-37.3573 950.097 -212.382 624.492 -153.954 291.897C-92.1505 -59.916 175.745 -381.761 575.884 -455.992Z" fill="url(#paint0_linear_1236_2823)"/>
</g>
<g filter="url(#filter2_f_1236_2823)">
<path fill-rule="evenodd" clip-rule="evenodd" d="M615.466 -597.293C391.237 -563.64 162.525 -453.862 123.2 -257.833C83.3812 -59.3459 256.526 99.3895 458.501 185.141C664.891 272.766 924.517 302.426 1092.94 153.883C1263.88 3.11544 1245.48 -231.553 1132.5 -409.307C1032.55 -566.554 823.775 -628.555 615.466 -597.293Z" fill="url(#paint1_linear_1236_2823)"/>
</g>
</g>
<defs>
<filter id="filter0_f_1236_2823" x="-365.666" y="-903.311" width="2317.69" height="2096.89" filterUnits="userSpaceOnUse" color-interpolation-filters="sRGB">
<feFlood flood-opacity="0" result="BackgroundImageFix"/>
<feBlend mode="normal" in="SourceGraphic" in2="BackgroundImageFix" result="shape"/>
<feGaussianBlur stdDeviation="10" result="effect1_foregroundBlur_1236_2823"/>
</filter>
<filter id="filter1_f_1236_2823" x="-247.65" y="-557.905" width="1999" height="1779.56" filterUnits="userSpaceOnUse" color-interpolation-filters="sRGB">
<feFlood flood-opacity="0" result="BackgroundImageFix"/>
<feBlend mode="normal" in="SourceGraphic" in2="BackgroundImageFix" result="shape"/>
<feGaussianBlur stdDeviation="41.2978" result="effect1_foregroundBlur_1236_2823"/>
</filter>
<filter id="filter2_f_1236_2823" x="76.1582" y="-646.441" width="1184.48" height="945.814" filterUnits="userSpaceOnUse" color-interpolation-filters="sRGB">
<feFlood flood-opacity="0" result="BackgroundImageFix"/>
<feBlend mode="normal" in="SourceGraphic" in2="BackgroundImageFix" result="shape"/>
<feGaussianBlur stdDeviation="20.6489" result="effect1_foregroundBlur_1236_2823"/>
</filter>
<linearGradient id="paint0_linear_1236_2823" x1="621.424" y1="-463.809" x2="884.108" y2="1100.71" gradientUnits="userSpaceOnUse">
<stop stop-color="#B78AF0"/>
<stop offset="1" stop-color="#6C24A5"/>
</linearGradient>
<linearGradient id="paint1_linear_1236_2823" x1="597.45" y1="-594.426" x2="743.257" y2="273.984" gradientUnits="userSpaceOnUse">
<stop stop-color="#B78AF0"/>
<stop offset="1" stop-color="#6C24A5"/>
</linearGradient>
</defs>
</svg>
