<svg width="195" height="34" viewBox="0 0 195 34" fill="none" xmlns="http://www.w3.org/2000/svg">
<g id="Group 1000001588">
<path id="Vector 1 (Stroke)" fill-rule="evenodd" clip-rule="evenodd" d="M157.11 13.9601C158.037 15.2409 158.57 16.8605 158.533 18.858C158.458 22.9813 155.663 25.4648 152.47 26.8698C149.285 28.2713 145.528 28.6966 143.037 28.668C142.797 28.6652 142.569 28.5588 142.413 28.376C142.257 28.1932 142.188 27.952 142.223 27.7142L144.721 10.7284C144.776 10.349 145.084 10.0567 145.466 10.0206C147.607 9.81807 150.836 9.98389 153.551 11.192C154.919 11.8006 156.19 12.6887 157.11 13.9601ZM146.271 11.6323C148.195 11.5373 150.754 11.7702 152.875 12.7136C154.049 13.236 155.055 13.9612 155.761 14.9361C156.459 15.9017 156.899 17.1617 156.868 18.8278C156.81 22.0317 154.693 24.0722 151.799 25.3455C149.271 26.4582 146.286 26.9105 144.012 26.9907L146.271 11.6323Z" fill="#FF3D7F"/>
<path id="Vector 2 (Stroke)" fill-rule="evenodd" clip-rule="evenodd" d="M167.627 10.4545C167.772 10.1851 168.054 10.0171 168.36 10.0171H169.858C170.279 10.0171 170.634 10.3308 170.685 10.7484L172.85 28.4003L171.197 28.603L170.49 22.8397H162.84L159.934 28.2307L158.468 27.4404L167.627 10.4545ZM163.738 21.1744H170.286L169.122 11.6824H168.857L163.738 21.1744Z" fill="#FF3D7F"/>
<path id="Ellipse 1 (Stroke)" fill-rule="evenodd" clip-rule="evenodd" d="M185.284 11.2288C180.783 11.2288 177.135 14.8774 177.135 19.3781C177.135 23.8789 180.783 27.5274 185.284 27.5274C189.785 27.5274 193.433 23.8789 193.433 19.3781C193.433 14.8774 189.785 11.2288 185.284 11.2288ZM175.567 19.3781C175.567 14.0118 179.918 9.66162 185.284 9.66162C190.65 9.66162 195 14.0118 195 19.3781C195 24.7444 190.65 29.0946 185.284 29.0946C179.918 29.0946 175.567 24.7444 175.567 19.3781Z" fill="#FF3D7F"/>
<path id="Vector 3 (Stroke)" fill-rule="evenodd" clip-rule="evenodd" d="M185.263 15.9351C184.891 16.8541 184.959 18.0324 185.559 19.4988C185.827 20.1569 186.029 20.9257 186.179 21.7335C186.702 21.4994 187.187 21.3007 187.606 21.1559C188.809 20.7402 189.984 19.8189 190.884 18.7541C191.796 17.6758 192.337 16.5569 192.4 15.8103L193.66 15.9131C193.566 17.0226 192.843 18.3784 191.858 19.543C190.862 20.721 189.509 21.8104 188.026 22.3228C187.556 22.4853 186.989 22.7244 186.373 23.0092C186.424 23.4238 186.464 23.8389 186.495 24.2455C186.621 25.8984 186.605 27.4721 186.551 28.4247L185.289 28.3561C185.34 27.4526 185.356 25.9327 185.234 24.3375C185.215 24.0888 185.193 23.8397 185.167 23.592C183.331 24.512 181.346 25.6355 180.243 26.29L179.588 25.2318C180.754 24.5399 182.985 23.276 184.995 22.2911C184.85 21.4195 184.652 20.6115 184.385 19.9583C183.72 18.3312 183.552 16.8027 184.088 15.4789C184.629 14.1445 186.963 12.3295 188.726 11.6721L189.68 12.2945C188.125 12.8745 185.631 15.0267 185.263 15.9351Z" fill="#FF3D7F"/>
<path id="Vector 4 (Stroke)" fill-rule="evenodd" clip-rule="evenodd" d="M192.367 17.3232L186.801 14.1241L187.33 13.0122L192.989 15.7761L192.367 17.3232ZM190.03 20.2754L184.926 16.8921L185.612 15.8684L190.716 19.2517L190.03 20.2754ZM185.774 27.0844L181.598 25.0851L182.134 23.9767L186.311 25.9759L185.774 27.0844Z" fill="#FF3D7F"/>
<g id="Group 54288">
<g id="Group 558">
<g id="Group 557">
<path id="Path 2373" d="M68.4218 10.3311C68.2028 10.2169 67.9782 10.114 67.7488 10.0226L67.3794 9.89926C66.2711 9.5296 65.111 9.33976 63.9429 9.33691C62.7326 9.34864 61.5322 9.55547 60.3875 9.94947C58.686 10.6327 57.1422 11.658 55.8514 12.9621C54.6622 14.2918 53.8134 15.8912 53.3781 17.6226C52.9428 19.3539 52.9339 21.1653 53.3523 22.9008C53.7708 24.6363 54.6039 26.2439 55.78 27.5853C56.9562 28.9266 58.4401 29.9615 60.104 30.6008C61.7679 31.2402 63.562 31.4648 65.3317 31.2553C67.1015 31.0459 68.794 30.4086 70.2634 29.3985C71.7328 28.3883 72.9352 27.0355 73.767 25.4566C74.5988 23.8776 75.0352 22.1197 75.0385 20.3343C75.0571 18.9148 74.7957 17.5056 74.2694 16.1875C73.7431 14.8695 72.9621 13.6685 71.9714 12.6536C70.901 11.7188 69.7064 10.9372 68.4218 10.3311ZM63.9357 27.8327C61.9557 27.8244 60.0591 27.0329 58.6587 25.6304C57.2583 24.228 56.4675 22.3281 56.4585 20.3443C56.4585 18.9334 56.8594 17.5516 57.6142 16.3604C58.369 15.1693 59.4465 14.2179 60.7209 13.6175C61.9953 13.017 63.414 12.7924 64.8111 12.9697C66.2082 13.1471 67.5261 13.7191 68.6108 14.619C69.5262 15.3837 70.2599 16.3433 70.7586 17.4278C71.1519 18.3725 71.3651 19.3827 71.3872 20.406C71.3887 21.3812 71.1984 22.3472 70.8271 23.2486C70.4558 24.1501 69.9108 24.9695 69.2234 25.6598C68.5359 26.3502 67.7193 26.8981 66.8204 27.2722C65.9215 27.6462 64.9578 27.8392 63.9844 27.8399L63.9357 27.8327Z" fill="#FF3D7F"/>
<path id="Path 2374" d="M58.6238 8.09607C58.6238 6.84699 59.126 5.64908 60.0201 4.76585C60.9142 3.88262 62.1269 3.38643 63.3913 3.38643C64.6557 3.38643 65.8684 3.88262 66.7624 4.76585C67.6565 5.64908 68.1588 6.84699 68.1588 8.09607V8.64865C69.2494 9.11629 70.2603 9.74776 71.1555 10.5207V8.15668C71.1836 7.13252 71.0037 6.11317 70.6264 5.15884C70.249 4.20451 69.6819 3.33455 68.9586 2.60034C68.2352 1.86612 67.3703 1.28254 66.4148 0.884059C65.4593 0.485577 64.4327 0.280273 63.3956 0.280273C62.3584 0.280273 61.3318 0.485577 60.3763 0.884059C59.4209 1.28254 58.5559 1.86612 57.8326 2.60034C57.1092 3.33455 56.5421 4.20451 56.1648 5.15884C55.7875 6.11317 55.6075 7.13252 55.6357 8.15668V10.6306C56.5913 9.96797 57.5926 9.37211 58.6323 8.84741" fill="#FF3D7F"/>
</g>
</g>
<path id="Path 7757" d="M67.8091 22.2748H61.5707C61.1557 22.2748 60.8085 22.4769 60.8085 22.7196V23.1238C60.8072 23.3665 61.1543 23.5686 61.5693 23.5686H67.8091C68.2241 23.5686 68.5713 23.3665 68.5713 23.1238V22.7196C68.5713 22.4396 68.2241 22.2748 67.8091 22.2748Z" fill="#FF3D7F"/>
<path id="Path 7758" d="M61.5693 18.3931H67.8091C68.2241 18.3931 68.5713 18.191 68.5713 17.9483V17.5441C68.5713 17.3014 68.2241 17.0993 67.8091 17.0993H61.5707C61.1557 17.0993 60.8085 17.3014 60.8085 17.5441V17.9483C60.8072 18.191 61.1543 18.3931 61.5693 18.3931Z" fill="#1DAE9F"/>
<path id="Path 7759" d="M58.9535 20.9788H69.1329C69.3066 20.991 69.4797 20.9517 69.6162 20.8691C69.7527 20.7865 69.8419 20.6669 69.8652 20.5355V20.1327C69.8419 20.0012 69.7527 19.8817 69.6162 19.799C69.4797 19.7164 69.3066 19.6771 69.1329 19.6894H58.9535C58.7798 19.6771 58.6066 19.7164 58.4701 19.799C58.3336 19.8817 58.2444 20.0012 58.2211 20.1327V20.5355C58.2211 20.8179 58.4874 20.9788 58.9535 20.9788Z" fill="#DAD8A7"/>
<g id="Group 293">
<path id="Path 1278" d="M15.0008 13.7261C15.1784 13.8909 15.3159 14.0923 15.4035 14.3155C15.491 14.5388 15.5263 14.7782 15.5068 15.0164V26.8779C15.579 27.8369 15.4417 28.7999 15.1041 29.7035C14.7665 30.607 14.2362 31.4305 13.5481 32.1196C11.9054 33.4155 9.81705 34.0509 7.70979 33.8961C5.76024 33.9715 3.8248 33.544 2.09907 32.6566C1.77797 32.5165 1.50239 32.2933 1.30225 32.0113C1.10212 31.7292 0.985094 31.3991 0.963874 31.0568C0.938879 30.6764 1.04894 30.2991 1.27558 29.9884C1.37849 29.8603 1.5108 29.7575 1.66188 29.6883C1.81296 29.6191 1.97859 29.5854 2.14546 29.5899C2.38196 29.6003 2.61553 29.6451 2.83846 29.7227C3.11715 29.8076 3.39023 29.9091 3.65615 30.0266C4.31453 30.3054 4.98941 30.5456 5.67717 30.7459C6.33106 30.9137 7.00641 30.9885 7.68224 30.9678C10.3731 30.9678 11.7417 29.6775 11.7417 27.0927V25.1904C11.3102 26.0093 10.6276 26.6767 9.7888 27.0997C8.86098 27.5758 7.82753 27.8228 6.77902 27.8191C5.54226 27.8371 4.32563 27.5127 3.2705 26.8835C2.23179 26.2608 1.39923 25.3594 0.872537 24.2874C0.267234 23.1225 -0.0316795 21.8292 0.0026571 20.5239C-0.0293217 19.202 0.26923 17.8924 0.872537 16.7081C1.39269 15.6457 2.21236 14.7497 3.23571 14.1247C4.29535 13.5042 5.51427 13.1905 6.75002 13.2202C7.77721 13.2028 8.79314 13.4309 9.70906 13.8844C10.5517 14.3049 11.2385 14.9714 11.6735 15.7909V14.9712C11.663 14.735 11.7088 14.4995 11.8074 14.2835C11.906 14.0674 12.0547 13.8766 12.2419 13.7261C12.6177 13.4034 13.1039 13.2295 13.6047 13.2386C14.1165 13.2236 14.6152 13.3978 15.0008 13.7261ZM10.6674 23.7334C11.3977 22.823 11.7705 21.6883 11.7185 20.5338C11.7884 19.3613 11.4144 18.2047 10.6674 17.2833C10.3065 16.8946 9.86142 16.5892 9.36442 16.389C8.86741 16.1888 8.33093 16.0989 7.79388 16.1258C7.25778 16.0997 6.72243 16.19 6.2265 16.3902C5.73056 16.5904 5.28643 16.8954 4.92618 17.2833C4.18574 18.2081 3.81251 19.3622 3.87507 20.5338C3.80839 21.6911 4.18504 22.8314 4.93198 23.7334C5.2866 24.1281 5.72979 24.4379 6.22713 24.6386C6.72447 24.8394 7.26258 24.9257 7.79968 24.8908C8.33755 24.9331 8.87803 24.8501 9.3766 24.6489C9.87516 24.4477 10.3176 24.1339 10.6674 23.7334Z" fill="#1DAE9F"/>
<path id="Path 1279" d="M31.9961 24.7743C32.2331 25.0863 32.3474 25.4707 32.3183 25.8578C32.2994 26.1999 32.1811 26.5298 31.9772 26.8089C31.7733 27.088 31.4921 27.3049 31.1665 27.4343C30.4023 27.8335 29.5945 28.1479 28.7583 28.3716C27.9134 28.5977 27.0424 28.7186 26.1663 28.7313C25.0976 28.7902 24.0277 28.6402 23.0194 28.2902C22.0111 27.9402 21.0849 27.3973 20.2952 26.6933C19.5572 25.9401 18.9841 25.0486 18.6106 24.073C18.2371 23.0974 18.071 22.058 18.1224 21.0179C18.0998 19.6134 18.4157 18.2232 19.0448 16.9592C19.6604 15.8319 20.5708 14.8831 21.6839 14.2089C22.8676 13.5509 24.2091 13.2102 25.5719 13.2214C26.8431 13.1834 28.1005 13.4864 29.207 14.0971C30.2074 14.7049 31.0075 15.58 31.5122 16.6181C32.0943 17.8147 32.3786 19.1281 32.3418 20.4518C32.3418 21.3117 31.927 21.7546 31.137 21.7546H21.9193C21.9585 22.8939 22.3819 23.989 23.1241 24.8703C23.5313 25.2223 24.0068 25.491 24.5225 25.6606C25.0383 25.8302 25.5837 25.8973 26.1265 25.8578C26.7103 25.8566 27.2914 25.7809 27.8551 25.6328C28.3685 25.4536 28.9672 25.2286 29.613 24.9592C30.0422 24.6952 30.5232 24.5214 31.0252 24.449C31.2016 24.3958 31.3907 24.3986 31.5652 24.4571C31.7398 24.5156 31.8907 24.6267 31.9961 24.7743ZM23.2094 16.8431C22.5086 17.6234 22.1022 18.6134 22.0575 19.6493H29.1275C29.1511 18.6268 28.8245 17.6259 28.1993 16.8044C27.8862 16.4809 27.5045 16.2279 27.0807 16.063C26.6569 15.8981 26.2012 15.8254 25.7455 15.8499C25.2739 15.8224 24.8019 15.8972 24.3636 16.069C23.9253 16.2407 23.5316 16.5051 23.2109 16.8431H23.2094Z" fill="#1DAE9F"/>
<path id="Path 1280" d="M47.8284 14.7982C48.7897 16.128 49.2563 17.7457 49.1493 19.3769V26.8975C49.1606 27.1437 49.1217 27.3896 49.035 27.6207C48.9482 27.8517 48.8154 28.0632 48.6444 28.2425C48.2586 28.5854 47.752 28.7648 47.2338 28.7418C46.7187 28.7557 46.2172 28.5775 45.829 28.2425C45.6385 28.0747 45.4886 27.8667 45.3904 27.6339C45.2922 27.4011 45.2483 27.1494 45.2619 26.8975V19.6116C45.3403 18.7184 45.0997 17.8263 44.5819 17.0904C44.3184 16.806 43.9923 16.5853 43.6288 16.4454C43.2653 16.3055 42.8741 16.2501 42.4856 16.2834C41.9915 16.2678 41.4993 16.3511 41.0386 16.5284C40.5779 16.7056 40.1582 16.9732 39.8047 17.3151C39.4555 17.6913 39.1867 18.1333 39.0144 18.6147C38.8422 19.0961 38.77 19.607 38.8021 20.1167V26.8975C38.8157 27.1494 38.7717 27.4011 38.6736 27.6339C38.5754 27.8667 38.4255 28.0747 38.235 28.2425C37.833 28.5606 37.3335 28.7339 36.8186 28.7339C36.3038 28.7339 35.8043 28.5606 35.4023 28.2425C35.2368 28.061 35.1103 27.8483 35.0305 27.6171C34.9507 27.3859 34.9192 27.1411 34.9378 26.8975V15.1288C34.9286 14.8897 34.9749 14.6518 35.0733 14.4333C35.1716 14.2147 35.3193 14.0214 35.505 13.8682C35.8879 13.5207 36.3901 13.3304 36.9098 13.3359C37.3886 13.3333 37.8541 13.4912 38.2307 13.7838C38.3961 13.9436 38.526 14.1359 38.6119 14.3483C38.6979 14.5607 38.738 14.7885 38.7298 15.0171V15.8241C39.21 15.0004 39.9203 14.3312 40.7755 13.8968C41.6751 13.4379 42.6757 13.2068 43.6878 13.2243C44.4506 13.1888 45.2124 13.3103 45.9252 13.5813C46.638 13.8522 47.2861 14.2666 47.8284 14.7982Z" fill="#1DAE9F"/>
<path id="Path 1281" d="M100.922 14.66C101.876 16.0175 102.325 17.689 102.185 19.3647V26.9301C102.198 27.1837 102.156 27.437 102.062 27.6714C101.968 27.9058 101.825 28.1152 101.643 28.2841C101.263 28.6057 100.782 28.7685 100.293 28.7407C99.8233 28.7422 99.3659 28.5816 98.9926 28.2841C98.8103 28.1152 98.667 27.9058 98.5731 27.6714C98.4791 27.437 98.4371 27.1837 98.4501 26.9301V19.3647C98.5318 18.5227 98.3308 17.6772 97.8813 16.972C97.667 16.7162 97.3978 16.5165 97.0956 16.3891C96.7934 16.2617 96.4666 16.2102 96.1417 16.2388C95.7073 16.2251 95.2755 16.3116 94.8771 16.4922C94.4787 16.6727 94.1236 16.9429 93.8374 17.2832C93.2269 18.0815 92.9183 19.0847 92.9697 20.1036V26.9301C92.9826 27.1837 92.9406 27.437 92.8467 27.6714C92.7528 27.9058 92.6094 28.1152 92.4272 28.2841C92.0632 28.5989 91.5989 28.7598 91.1263 28.735C90.6568 28.7376 90.1996 28.5791 89.8254 28.2841C89.6432 28.1152 89.4998 27.9058 89.4059 27.6714C89.3119 27.437 89.2699 27.1837 89.2829 26.9301V19.3647C89.3723 18.5259 89.1807 17.6807 88.7404 16.972C88.5247 16.7164 88.2545 16.517 87.9515 16.3897C87.6484 16.2624 87.3209 16.2107 86.9952 16.2388C86.5665 16.2186 86.1392 16.3025 85.747 16.4837C85.3548 16.665 85.0084 16.9386 84.7353 17.2832C84.1375 18.0866 83.8422 19.0896 83.9049 20.1036V26.9301C83.9179 27.1837 83.8758 27.437 83.7819 27.6714C83.688 27.9058 83.5446 28.1152 83.3624 28.2841C82.9982 28.5984 82.5341 28.7593 82.0615 28.735C81.5919 28.7385 81.1345 28.5799 80.7606 28.2841C80.5784 28.1152 80.435 27.9058 80.3411 27.6714C80.2472 27.437 80.2052 27.1837 80.2181 26.9301V15.0202C80.2061 14.7724 80.2487 14.525 80.3428 14.2971C80.4368 14.0691 80.5797 13.8666 80.7606 13.705C81.1248 13.3907 81.589 13.2298 82.0615 13.2541C82.5231 13.2272 82.9765 13.389 83.325 13.705C83.4848 13.8705 83.6097 14.0688 83.6919 14.2873C83.7741 14.5058 83.8118 14.7396 83.8025 14.9741V15.7058C84.2163 14.9083 84.8534 14.2607 85.6293 13.8491C86.4582 13.4135 87.3791 13.202 88.3072 13.234C89.2257 13.1533 90.1445 13.3846 90.9262 13.893C91.7078 14.4015 92.3102 15.1598 92.6431 16.0544C93.0824 15.1987 93.748 14.4919 94.5612 14.0176C95.432 13.493 96.4226 13.2223 97.4287 13.234C98.0759 13.1894 98.7246 13.2942 99.3284 13.5407C99.9322 13.7872 100.476 14.1694 100.922 14.66Z" fill="#1DAE9F"/>
<path id="Path 1282" d="M118.655 24.7752C118.889 25.0878 119.001 25.4723 118.97 25.8587C118.952 26.201 118.834 26.5311 118.631 26.8104C118.427 27.0896 118.146 27.3064 117.821 27.4352C117.058 27.8331 116.252 28.1475 115.418 28.3725C114.577 28.5988 113.71 28.7197 112.837 28.7322C111.77 28.7889 110.701 28.6373 109.695 28.2864C108.688 27.9355 107.763 27.3923 106.974 26.6885C106.237 25.9353 105.666 25.0438 105.293 24.0682C104.92 23.0926 104.755 22.0532 104.806 21.0132C104.782 19.6079 105.1 18.217 105.732 16.9545C106.343 15.825 107.252 14.8755 108.365 14.2043C109.547 13.5471 110.886 13.2073 112.245 13.2197C113.506 13.1945 114.75 13.5052 115.844 14.1183C116.862 14.717 117.678 15.5933 118.192 16.6392C118.774 17.8356 119.06 19.1488 119.026 20.4729C119.026 21.3328 118.606 21.7756 117.824 21.7756H108.592C108.634 22.9145 109.056 24.0087 109.794 24.8913C110.207 25.2433 110.688 25.5103 111.208 25.6763C111.729 25.8423 112.278 25.9039 112.824 25.8573C113.416 25.8583 114.006 25.7826 114.578 25.6323C115.175 25.4419 115.761 25.217 116.331 24.9587C116.751 24.7014 117.221 24.5311 117.711 24.4585C117.883 24.4148 118.064 24.4216 118.232 24.4779C118.4 24.5343 118.547 24.6377 118.655 24.7752ZM109.837 16.8441C109.138 17.6242 108.732 18.6143 108.688 19.6503H115.747C115.769 18.6303 115.445 17.6319 114.827 16.8097C114.523 16.4769 114.144 16.2179 113.72 16.0532C113.296 15.8885 112.838 15.8227 112.383 15.861C111.911 15.8382 111.439 15.9151 110.999 16.0865C110.56 16.2579 110.164 16.5197 109.837 16.8542V16.8441Z" fill="#1DAE9F"/>
<path id="Path 1283" d="M122.628 27.3051C122.322 27.1401 122.067 26.8978 121.889 26.6033C121.712 26.3089 121.618 25.9731 121.619 25.6313C121.596 25.2767 121.71 24.9266 121.938 24.6498C122.036 24.5305 122.161 24.4354 122.304 24.3723C122.446 24.3092 122.602 24.2798 122.759 24.2866C123.278 24.3469 123.778 24.5165 124.224 24.7837C124.816 25.0626 125.428 25.3006 126.054 25.496C126.741 25.6763 127.452 25.7518 128.163 25.7196C128.858 25.7579 129.551 25.6195 130.175 25.3179C130.4 25.2135 130.589 25.0479 130.719 24.8409C130.85 24.6339 130.916 24.3944 130.91 24.1513C130.923 24.0062 130.905 23.8602 130.858 23.7221C130.811 23.584 130.736 23.4567 130.637 23.3478C130.338 23.0787 129.975 22.8867 129.582 22.7895C128.832 22.5625 128.071 22.3761 127.301 22.2311C125.875 22.0379 124.522 21.4993 123.363 20.6641C122.964 20.3163 122.65 19.8849 122.444 19.4021C122.239 18.9192 122.147 18.3972 122.176 17.875C122.164 17.0013 122.451 16.1486 122.991 15.4534C123.563 14.7195 124.319 14.1429 125.186 13.7796C126.204 13.3818 127.293 13.1918 128.388 13.2212C129.239 13.2104 130.087 13.3154 130.908 13.5332C131.67 13.7342 132.395 14.0504 133.057 14.4705C133.355 14.6286 133.606 14.861 133.783 15.1441C133.96 15.4272 134.058 15.7511 134.066 16.083C134.088 16.4533 133.975 16.8193 133.747 17.1157C133.652 17.2409 133.528 17.3424 133.385 17.4122C133.243 17.482 133.086 17.518 132.926 17.5174C132.69 17.5173 132.455 17.4718 132.236 17.3835C131.956 17.2569 131.684 17.1142 131.421 16.9562C130.927 16.6815 130.406 16.4553 129.865 16.281C129.346 16.1315 128.806 16.0562 128.264 16.0574C127.621 16.0171 126.982 16.175 126.435 16.5089C126.219 16.6411 126.042 16.8266 125.922 17.0469C125.801 17.2671 125.743 17.5144 125.751 17.7639C125.744 18.0003 125.805 18.2339 125.926 18.4388C126.046 18.6437 126.223 18.8119 126.435 18.9248C127.275 19.3219 128.17 19.5946 129.091 19.7339C130.21 19.9352 131.3 20.2646 132.34 20.7154C133.026 21 133.618 21.4655 134.05 22.0601C134.403 22.7061 134.576 23.4318 134.552 24.1641C134.565 24.8111 134.416 25.4513 134.118 26.0289C133.82 26.6065 133.382 27.1038 132.842 27.4774C131.466 28.3814 129.827 28.822 128.173 28.7324C126.231 28.7214 124.324 28.2304 122.628 27.3051Z" fill="#1DAE9F"/>
</g>
<g id="Group 558_2">
<g id="Group 557_2">
<path id="Path 2373_2" d="M68.4218 10.3311C68.2028 10.2169 67.9782 10.114 67.7488 10.0226L67.3794 9.89926C66.2711 9.5296 65.111 9.33976 63.9429 9.33691C62.7326 9.34864 61.5322 9.55547 60.3875 9.94947C58.686 10.6327 57.1422 11.658 55.8514 12.9621C54.6622 14.2918 53.8134 15.8912 53.3781 17.6226C52.9428 19.3539 52.9339 21.1653 53.3523 22.9008C53.7708 24.6363 54.6039 26.2439 55.78 27.5853C56.9562 28.9266 58.4401 29.9615 60.104 30.6008C61.7679 31.2402 63.562 31.4648 65.3317 31.2553C67.1015 31.0459 68.794 30.4086 70.2634 29.3985C71.7328 28.3883 72.9352 27.0355 73.767 25.4566C74.5988 23.8776 75.0352 22.1197 75.0385 20.3343C75.0571 18.9148 74.7957 17.5056 74.2694 16.1875C73.7431 14.8695 72.9621 13.6685 71.9714 12.6536C70.901 11.7188 69.7064 10.9372 68.4218 10.3311ZM63.9357 27.8327C61.9557 27.8244 60.0591 27.0329 58.6587 25.6304C57.2583 24.228 56.4675 22.3281 56.4585 20.3443C56.4585 18.9334 56.8594 17.5516 57.6142 16.3604C58.369 15.1693 59.4465 14.2179 60.7209 13.6175C61.9953 13.017 63.414 12.7924 64.8111 12.9697C66.2082 13.1471 67.5261 13.7191 68.6108 14.619C69.5262 15.3837 70.2599 16.3433 70.7586 17.4278C71.1519 18.3725 71.3651 19.3827 71.3872 20.406C71.3887 21.3812 71.1984 22.3472 70.8271 23.2486C70.4558 24.1501 69.9108 24.9695 69.2234 25.6598C68.5359 26.3502 67.7193 26.8981 66.8204 27.2722C65.9215 27.6462 64.9578 27.8392 63.9844 27.8399L63.9357 27.8327Z" fill="#FF3D7F"/>
<path id="Path 2374_2" d="M58.6238 8.09607C58.6238 6.84699 59.126 5.64908 60.0201 4.76585C60.9142 3.88262 62.1269 3.38643 63.3913 3.38643C64.6557 3.38643 65.8684 3.88262 66.7624 4.76585C67.6565 5.64908 68.1588 6.84699 68.1588 8.09607V8.64865C69.2494 9.11629 70.2603 9.74776 71.1555 10.5207V8.15668C71.1836 7.13252 71.0037 6.11317 70.6264 5.15884C70.249 4.20451 69.6819 3.33455 68.9586 2.60034C68.2352 1.86612 67.3703 1.28254 66.4148 0.884059C65.4593 0.485577 64.4327 0.280273 63.3956 0.280273C62.3584 0.280273 61.3318 0.485577 60.3763 0.884059C59.4209 1.28254 58.5559 1.86612 57.8326 2.60034C57.1092 3.33455 56.5421 4.20451 56.1648 5.15884C55.7875 6.11317 55.6075 7.13252 55.6357 8.15668V10.6306C56.5913 9.96797 57.5926 9.37211 58.6323 8.84741" fill="#FF3D7F"/>
</g>
</g>
<path id="Path 7757_2" d="M67.8091 22.2748H61.5707C61.1557 22.2748 60.8085 22.4769 60.8085 22.7196V23.1238C60.8072 23.3665 61.1543 23.5686 61.5693 23.5686H67.8091C68.2241 23.5686 68.5713 23.3665 68.5713 23.1238V22.7196C68.5713 22.4396 68.2241 22.2748 67.8091 22.2748Z" fill="#FF3D7F"/>
<path id="Path 7758_2" d="M61.5693 18.3931H67.8091C68.2241 18.3931 68.5713 18.191 68.5713 17.9483V17.5441C68.5713 17.3014 68.2241 17.0993 67.8091 17.0993H61.5707C61.1557 17.0993 60.8085 17.3014 60.8085 17.5441V17.9483C60.8072 18.191 61.1543 18.3931 61.5693 18.3931Z" fill="#1DAE9F"/>
<path id="Path 7759_2" d="M58.9535 20.9788H69.1329C69.3066 20.991 69.4797 20.9517 69.6162 20.8691C69.7527 20.7865 69.8419 20.6669 69.8652 20.5355V20.1327C69.8419 20.0012 69.7527 19.8817 69.6162 19.799C69.4797 19.7164 69.3066 19.6771 69.1329 19.6894H58.9535C58.7798 19.6771 58.6066 19.7164 58.4701 19.799C58.3336 19.8817 58.2444 20.0012 58.2211 20.1327V20.5355C58.2211 20.8179 58.4874 20.9788 58.9535 20.9788Z" fill="#DAD8A7"/>
</g>
<path id="Vector 5" d="M142.881 10.1833L135.221 28.3349L129.33 28.7597L142.881 10.1833Z" fill="#1DAE9F"/>
</g>
</svg>
