<svg width="18" height="17" viewBox="0 0 18 17" fill="none" xmlns="http://www.w3.org/2000/svg">
<path d="M16.0312 0.53125C16.4883 0.53125 16.875 0.917969 16.875 1.375C16.875 1.86719 16.4883 2.21875 16.0312 2.21875H3.09375C2.28516 2.21875 1.6875 2.85156 1.6875 3.625V13.1875C1.6875 13.9961 2.28516 14.5938 3.09375 14.5938H14.9062C15.6797 14.5938 16.3125 13.9961 16.3125 13.1875V7C16.3125 6.22656 15.6797 5.59375 14.9062 5.59375H4.21875C3.72656 5.59375 3.375 5.24219 3.375 4.75C3.375 4.29297 3.72656 3.90625 4.21875 3.90625H14.9062C16.5938 3.90625 18 5.3125 18 7V13.1875C18 14.9102 16.5938 16.2812 14.9062 16.2812H3.09375C1.37109 16.2812 0 14.9102 0 13.1875V3.625C0 1.9375 1.37109 0.53125 3.09375 0.53125H16.0312ZM12.375 10.0938C12.375 9.49609 12.8672 8.96875 13.5 8.96875C14.0977 8.96875 14.625 9.49609 14.625 10.0938C14.625 10.7266 14.0977 11.2188 13.5 11.2188C12.8672 11.2188 12.375 10.7266 12.375 10.0938Z" fill="#6C24A5"/>
</svg>
